<?xml version="1.0" encoding="UTF-8" standalone="no"?>
<svg
   xmlns:dc="http://purl.org/dc/elements/1.1/"
   xmlns:cc="http://creativecommons.org/ns#"
   xmlns:rdf="http://www.w3.org/1999/02/22-rdf-syntax-ns#"
   xmlns:svg="http://www.w3.org/2000/svg"
   xmlns="http://www.w3.org/2000/svg"
   id="svg8"
   version="1.1"
   viewBox="0 0 28.569386 25.740653"
   height="97.287506"
   width="107.97878">
  <defs
     id="defs2" />
  <metadata
     id="metadata5">
    <rdf:RDF>
      <cc:Work
         rdf:about="">
        <dc:format>image/svg+xml</dc:format>
        <dc:type
           rdf:resource="http://purl.org/dc/dcmitype/StillImage" />
        <dc:title></dc:title>
      </cc:Work>
    </rdf:RDF>
  </metadata>
  <g
     transform="translate(-56.094016,-95.622195)"
     id="layer1">

    <g
       transform="matrix(0.47127764,0,0,0.46929842,62.703171,100.97546)"
       id="g5679">
      <g
         id="g5619">
        <path
           d="m 29.3,15.817 c -1.364,0 -2.558,-0.742 -3.2,-1.843 -0.642,1.102 -1.836,1.843 -3.2,1.843 -1.364,0 -2.559,-0.742 -3.2,-1.843 -0.641,1.102 -1.835,1.843 -3.199,1.843 -1.364,0 -2.559,-0.742 -3.2,-1.843 -0.642,1.102 -1.836,1.843 -3.202,1.843 -1.364,0 -2.558,-0.742 -3.2,-1.843 -0.642,1.102 -1.836,1.843 -3.2,1.843 C 1.66,15.817 0,14.158 0,12.119 V 7.195 C 0,7.133 0.012,7.071 0.034,7.013 L 2.397,0.958 C 2.472,0.766 2.657,0.64 2.863,0.64 h 27.273 c 0.206,0 0.391,0.126 0.466,0.318 l 2.363,6.055 C 32.988,7.071 33,7.133 33,7.195 v 4.924 c 0,2.039 -1.66,3.698 -3.7,3.698 z m -3.199,-4.198 c 0.276,0 0.5,0.224 0.5,0.5 0,1.488 1.211,2.698 2.7,2.698 1.489,0 2.7,-1.21 2.7,-2.698 V 7.289 L 29.796,1.64 H 3.205 L 1,7.289 v 4.83 c 0,1.488 1.211,2.698 2.699,2.698 1.489,0 2.7,-1.21 2.7,-2.698 0,-0.276 0.224,-0.5 0.5,-0.5 0.276,0 0.5,0.224 0.5,0.5 0,1.488 1.211,2.698 2.7,2.698 1.49,0 2.702,-1.21 2.702,-2.698 0,-0.276 0.224,-0.5 0.5,-0.5 0.276,0 0.5,0.224 0.5,0.5 0,1.488 1.211,2.698 2.7,2.698 1.488,0 2.699,-1.21 2.699,-2.698 0,-0.276 0.224,-0.5 0.5,-0.5 0.276,0 0.5,0.224 0.5,0.5 0,1.488 1.211,2.698 2.7,2.698 1.489,0 2.7,-1.21 2.7,-2.698 10e-4,-0.276 0.224,-0.5 0.501,-0.5 z"
           id="path5609" />
        <path
           d="M 28.39,32.361 H 4.611 c -1.199,0 -2.174,-0.975 -2.174,-2.174 V 19.651 c 0,-0.276 0.224,-0.5 0.5,-0.5 0.276,0 0.5,0.224 0.5,0.5 v 10.536 c 0,0.647 0.526,1.174 1.174,1.174 H 28.39 c 0.648,0 1.175,-0.526 1.175,-1.174 V 19.651 c 0,-0.276 0.224,-0.5 0.5,-0.5 0.276,0 0.5,0.224 0.5,0.5 v 10.536 c -0.001,1.198 -0.976,2.174 -2.175,2.174 z"
           id="path5611" />
        <g
           id="g5617">
          <path
             d="M 14.433,32.16 H 7.194 c -0.276,0 -0.5,-0.224 -0.5,-0.5 V 19.306 c 0,-0.276 0.224,-0.5 0.5,-0.5 h 7.238 c 0.276,0 0.5,0.224 0.5,0.5 V 31.66 c 10e-4,0.276 -0.223,0.5 -0.499,0.5 z m -6.739,-1 h 6.238 V 19.806 H 7.694 Z"
             id="path5613" />
          <path
             d="m 25.805,26.38 h -8.566 c -0.276,0 -0.5,-0.224 -0.5,-0.5 v -6.573 c 0,-0.276 0.224,-0.5 0.5,-0.5 h 8.566 c 0.276,0 0.5,0.224 0.5,0.5 v 6.573 c 0,0.276 -0.224,0.5 -0.5,0.5 z m -8.067,-1 h 7.566 v -5.573 h -7.566 z"
             id="path5615" />
        </g>
      </g>
      <g
         id="g5621" />
      <g
         id="g5623" />
      <g
         id="g5625" />
      <g
         id="g5627" />
      <g
         id="g5629" />
      <g
         id="g5631" />
      <g
         id="g5633" />
      <g
         id="g5635" />
      <g
         id="g5637" />
      <g
         id="g5639" />
      <g
         id="g5641" />
      <g
         id="g5643" />
      <g
         id="g5645" />
      <g
         id="g5647" />
      <g
         id="g5649" />
    </g>
  </g>
</svg>
