<?xml version="1.0" encoding="UTF-8" standalone="no"?>
<svg
   xmlns:dc="http://purl.org/dc/elements/1.1/"
   xmlns:cc="http://creativecommons.org/ns#"
   xmlns:rdf="http://www.w3.org/1999/02/22-rdf-syntax-ns#"
   xmlns:svg="http://www.w3.org/2000/svg"
   xmlns="http://www.w3.org/2000/svg"
   id="svg8"
   version="1.1"
   viewBox="0 0 28.669388 25.840654"
   height="25.840654mm"
   width="28.669388mm">
  <defs
     id="defs2" />
  <metadata
     id="metadata5">
    <rdf:RDF>
      <cc:Work
         rdf:about="">
        <dc:format>image/svg+xml</dc:format>
        <dc:type
           rdf:resource="http://purl.org/dc/dcmitype/StillImage" />
        <dc:title></dc:title>
      </cc:Work>
    </rdf:RDF>
  </metadata>
  <g
     transform="translate(-18.707249,-31.462933)"
     id="layer1">
    <rect
       ry="0.48514566"
       y="31.562933"
       x="18.807249"
       height="25.640654"
       width="28.469387"
       id="rect4526"
       style="fill:#51b328;fill-opacity:1;stroke:#21000f;stroke-width:0.2;stroke-miterlimit:4;stroke-dasharray:none;stroke-opacity:1" />
    <text
       id="text5197"
       y="136.10374"
       x="-188.15775"
       style="font-style:normal;font-weight:normal;font-size:10.58333302px;line-height:1.25;font-family:sans-serif;letter-spacing:0px;word-spacing:0px;fill:#000000;fill-opacity:1;stroke:none;stroke-width:0.26458332"
       xml:space="preserve"><tspan
         style="stroke-width:0.26458332"
         y="145.75925"
         x="-188.15775"
         id="tspan5195" /></text>
    <g
       transform="matrix(0.02945296,0,0,0.03356623,25.001775,37.132792)"
       id="g5229">
      <path
         d="M 482.12109,302.89844 C 478.76953,290.68359 468.52734,281.59375 456,279.71484 V 96.101562 h 16 c 4.41797,0 8,-3.582031 8,-8 v -80 c 0,-4.421874 -3.58203,-8 -8,-8 H 120 c -4.41797,0 -8,3.578126 -8,8 v 80 c 0,4.417969 3.58203,8 8,8 h 16 V 256.10156 h -8 c -19.85547,-0.0469 -39.304688,5.64453 -56,16.39063 v -40.39063 c 0,-4.42187 -3.582031,-8 -8,-8 H 8 c -4.417969,0 -8,3.57813 -8,8 v 184 c 0,4.41797 3.582031,8 8,8 h 56 c 4.417969,0 8,-3.58203 8,-8 v -40.38672 c 16.699219,10.73828 36.14453,16.42969 56,16.38672 h 131.35937 c 9.10157,-0.0156 18.16016,-1.21094 26.95313,-3.55469 l 173.20703,-46.39843 c 17.04297,-4.64453 27.14063,-22.17578 22.60156,-39.25 z M 128,16.101562 h 336 v 64 H 128 Z m 24,80 H 440 V 281.08984 l -92.84766,24.89844 c -3.82422,-9.11719 -11.625,-15.96484 -21.16015,-18.57812 L 218.19922,258.5 c -6.07031,-1.59766 -12.32031,-2.40625 -18.59766,-2.39844 H 152 Z M 56,408.10156 H 16 v -168 h 40 z m 399.36719,-81.41015 -173.17578,46.39843 c -7.44922,1.98828 -15.1211,3 -22.83204,3.01172 H 128 C 108.95313,376.14453 90.410156,369.96484 75.199219,358.5 L 72,356.10156 v -64 l 3.199219,-2.40234 C 90.410156,278.23437 108.95313,272.05078 128,272.10156 h 71.60156 c 4.88672,-0.004 9.75781,0.62891 14.48828,1.87891 l 107.75782,28.88672 c 6.36718,1.7539 11.02734,7.21094 11.7539,13.77734 0.0859,0.32813 0.19141,0.65235 0.32032,0.96875 -0.0937,0.34375 -0.16407,0.69141 -0.21094,1.04688 0.008,1.30078 -0.16797,2.59765 -0.52735,3.84765 -1.88281,6.97266 -8.19922,11.82031 -15.42187,11.83203 -1.41016,0.0117 -2.8086,-0.16797 -4.16797,-0.52734 l -68,-18.23438 c -2.78906,-0.82812 -5.80859,-0.0781 -7.88672,1.96094 -2.07422,2.03906 -2.88281,5.04297 -2.10547,7.84766 0.77735,2.80078 3.01563,4.96484 5.84766,5.64062 l 68,18.24219 c 2.71484,0.71485 5.51562,1.07422 8.32812,1.07031 14.38282,-0.008 26.98828,-9.6289 30.78907,-23.5039 0.44531,-1.60547 0.74609,-3.2461 0.90625,-4.90235 L 447,295.78125 c 0.69531,-0.17578 1.44922,-0.35547 2.16016,-0.47266 7.96484,-1.02734 15.45312,4.00782 17.51171,11.76563 0.35938,1.35156 0.53907,2.74609 0.52735,4.14453 0.0117,7.24219 -4.83985,13.58594 -11.83203,15.47266 z m 0,0"
         id="path5215" />
      <path
         d="m 256,128.10156 h 80 c 4.41797,0 8,-3.58203 8,-8 0,-4.42187 -3.58203,-8 -8,-8 h -80 c -4.41797,0 -8,3.57813 -8,8 0,4.41797 3.58203,8 8,8 z m 0,0"
         id="path5217" />
    </g>
  </g>
</svg>
