<?xml version="1.0" encoding="iso-8859-1"?>
<!-- Generator: Adobe Illustrator 19.0.0, SVG Export Plug-In . SVG Version: 6.00 Build 0)  -->
<svg version="1.1" id="Capa_1" xmlns="http://www.w3.org/2000/svg" xmlns:xlink="http://www.w3.org/1999/xlink" x="0px" y="0px"
	 viewBox="0 0 512 512" style="enable-background:new 0 0 512 512;" xml:space="preserve">
<g>
	<g>
		<path d="M298.667,0C275.136,0,256,19.136,256,42.667v224c0,5.888,4.779,10.667,10.667,10.667s10.667-4.779,10.667-10.667v-224
			c0-11.776,9.579-21.333,21.333-21.333c11.755,0,21.333,9.557,21.333,21.333v224c0,5.888,4.779,10.667,10.667,10.667
			s10.667-4.779,10.667-10.667v-224C341.333,19.136,322.197,0,298.667,0z"/>
	</g>
</g>
<g>
	<g>
		<path d="M362.667,42.667C339.136,42.667,320,61.803,320,85.333C320,91.221,324.779,96,330.667,96s10.667-4.779,10.667-10.667
			c0-11.776,9.579-21.333,21.333-21.333S384,73.557,384,85.333v181.333c0,5.888,4.779,10.667,10.667,10.667
			s10.667-4.779,10.667-10.667V85.333C405.333,61.803,386.197,42.667,362.667,42.667z"/>
	</g>
</g>
<g>
	<g>
		<path d="M426.667,106.667c-23.531,0-42.667,19.136-42.667,42.667c0,5.888,4.779,10.667,10.667,10.667s10.667-4.779,10.667-10.667
			c0-11.776,9.579-21.333,21.333-21.333S448,137.557,448,149.333v224c0,64.683-52.629,117.333-117.333,117.333h-61.461
			c-48.789,0-94.187-26.795-121.493-71.744L66.368,287.125c-1.557-3.051-2.368-6.336-2.368-9.792
			c0-18.475,25.067-29.781,39.381-11.733l54.037,51.541c8.917,10.027,22.784,13.419,35.285,8.661
			c12.523-4.757,20.629-16.512,20.629-29.909V85.333c0-11.776,9.579-21.333,21.333-21.333C246.421,64,256,73.557,256,85.333
			C256,91.221,260.779,96,266.667,96s10.667-4.779,10.667-10.667c0-23.531-19.136-42.667-42.667-42.667
			C211.136,42.667,192,61.803,192,85.333v210.56c0,6.805-5.269,9.365-6.869,9.963c-1.643,0.64-7.189,2.261-12.373-3.499
			l-53.547-50.965c-8.149-10.624-20.501-16.725-33.877-16.725c-23.531,0-42.667,19.136-42.667,42.667
			c0,6.912,1.6,13.525,5.184,20.309l81.707,132.416C160.704,481.365,212.907,512,269.205,512h61.461
			c76.459,0,138.667-62.208,138.667-138.667v-224C469.333,125.803,450.197,106.667,426.667,106.667z"/>
	</g>
</g>
<g>
</g>
<g>
</g>
<g>
</g>
<g>
</g>
<g>
</g>
<g>
</g>
<g>
</g>
<g>
</g>
<g>
</g>
<g>
</g>
<g>
</g>
<g>
</g>
<g>
</g>
<g>
</g>
<g>
</g>
</svg>
